<svg xmlns="http://www.w3.org/2000/svg" width="680" height="320" viewBox="0 0 680 320" font-family="-apple-system,Segoe UI,Helvetica,Arial,sans-serif">
  <rect x="0.5" y="0.5" width="679" height="319" rx="8" fill="#ffffff" stroke="#d0d7de"/>
  <text x="20" y="28" font-size="16" font-weight="700" fill="#24292f">rload vs Node — latency percentiles</text>
  <text x="20" y="48" font-size="11" fill="#57606a">200,000 requests @ concurrency 200 · local target server</text>
  <text x="20" y="74" font-size="12" font-weight="600" fill="#57606a">Latency (ms) — lower is better</text>
  <rect x="400" y="60" width="12" height="12" rx="2" fill="#dea584"/>
  <text x="418" y="71" font-size="12" fill="#24292f">Rust (rload)</text>
  <rect x="510" y="60" width="12" height="12" rx="2" fill="#8cc84b"/>
  <text x="528" y="71" font-size="12" fill="#24292f">Node baseline</text>
  <line x1="60" y1="270" x2="650" y2="270" stroke="#d0d7de" stroke-width="1"/>
  <text x="52" y="274" font-size="10" text-anchor="end" fill="#57606a">0</text>
  <line x1="60" y1="225" x2="650" y2="225" stroke="#d0d7de" stroke-width="1"/>
  <text x="52" y="229" font-size="10" text-anchor="end" fill="#57606a">20</text>
  <line x1="60" y1="180" x2="650" y2="180" stroke="#d0d7de" stroke-width="1"/>
  <text x="52" y="184" font-size="10" text-anchor="end" fill="#57606a">40</text>
  <line x1="60" y1="135" x2="650" y2="135" stroke="#d0d7de" stroke-width="1"/>
  <text x="52" y="139" font-size="10" text-anchor="end" fill="#57606a">60</text>
  <line x1="60" y1="90" x2="650" y2="90" stroke="#d0d7de" stroke-width="1"/>
  <text x="52" y="94" font-size="10" text-anchor="end" fill="#57606a">80</text>
  <rect x="104.75" y="258.3675" width="26" height="11.6325" rx="3" fill="#dea584"/>
  <rect x="136.75" y="249.03" width="26" height="20.970000000000002" rx="3" fill="#8cc84b"/>
  <text x="117.75" y="253.3675" font-size="10" text-anchor="middle" fill="#24292f">5.17</text>
  <text x="149.75" y="244.03" font-size="10" text-anchor="middle" fill="#24292f">9.32</text>
  <text x="133.75" y="288" font-size="12" font-weight="600" text-anchor="middle" fill="#24292f">p50</text>
  <rect x="252.25" y="255.825" width="26" height="14.175" rx="3" fill="#dea584"/>
  <rect x="284.25" y="244.44" width="26" height="25.56" rx="3" fill="#8cc84b"/>
  <text x="265.25" y="250.825" font-size="10" text-anchor="middle" fill="#24292f">6.3</text>
  <text x="297.25" y="239.44" font-size="10" text-anchor="middle" fill="#24292f">11.36</text>
  <text x="281.25" y="288" font-size="12" font-weight="600" text-anchor="middle" fill="#24292f">p90</text>
  <rect x="399.75" y="252.45" width="26" height="17.55" rx="3" fill="#dea584"/>
  <rect x="431.75" y="233.37" width="26" height="36.63" rx="3" fill="#8cc84b"/>
  <text x="412.75" y="247.45" font-size="10" text-anchor="middle" fill="#24292f">7.8</text>
  <text x="444.75" y="228.37" font-size="10" text-anchor="middle" fill="#24292f">16.28</text>
  <text x="428.75" y="288" font-size="12" font-weight="600" text-anchor="middle" fill="#24292f">p99</text>
  <rect x="547.25" y="213.12" width="26" height="56.88" rx="3" fill="#dea584"/>
  <rect x="579.25" y="92.475" width="26" height="177.525" rx="3" fill="#8cc84b"/>
  <text x="560.25" y="208.12" font-size="10" text-anchor="middle" fill="#24292f">25.28</text>
  <text x="592.25" y="87.475" font-size="10" text-anchor="middle" fill="#24292f">78.9</text>
  <text x="576.25" y="288" font-size="12" font-weight="600" text-anchor="middle" fill="#24292f">max</text>
  <line x1="60" y1="270" x2="650" y2="270" stroke="#57606a" stroke-width="1"/>

</svg>